<?xml version="1.0" standalone="no"?>
<!DOCTYPE svg PUBLIC "-//W3C//DTD SVG 20010904//EN"
 "http://www.w3.org/TR/2001/REC-SVG-20010904/DTD/svg10.dtd">
<svg version="1.0" xmlns="http://www.w3.org/2000/svg"
 width="700.000000pt" height="700.000000pt" viewBox="0 0 700.000000 700.000000"
 preserveAspectRatio="xMidYMid meet">
<metadata>
Created by potrace 1.14, written by Peter Selinger 2001-2017
</metadata>
<g transform="translate(0.000000,700.000000) scale(0.100000,-0.100000)"
fill="#000000" stroke="none">
<path d="M1550 6980 c-727 -111 -1299 -622 -1491 -1333 -6 -23 -13 -53 -16
-67 -2 -14 -8 -44 -13 -66 -23 -101 -25 -278 -25 -2019 0 -1591 4 -1958 20
-1985 2 -3 6 -21 9 -40 24 -146 100 -364 173 -500 65 -119 173 -278 228 -336
11 -11 40 -43 65 -70 164 -179 418 -349 660 -441 71 -27 210 -71 250 -78 14
-3 36 -7 50 -10 137 -29 200 -30 2040 -30 1974 0 1921 -1 2110 46 96 23 215
61 266 84 120 54 178 84 257 131 48 30 93 58 100 64 6 5 41 33 77 61 251 196
442 455 563 760 43 107 79 229 92 309 5 34 11 63 23 118 10 46 11 3732 1 3807
-14 110 -18 135 -40 225 -32 138 -104 328 -163 430 -14 25 -29 52 -33 60 -3 8
-29 49 -56 90 -134 200 -313 379 -507 506 -105 68 -104 68 -209 119 -173 85
-315 129 -556 172 -22 4 -877 8 -1900 9 -1730 2 -1868 1 -1975 -16z"/>
</g>
</svg>
